<svg width="16" height="20" viewBox="0 0 16 20" fill="none" xmlns="http://www.w3.org/2000/svg">
<path fill-rule="evenodd" clip-rule="evenodd" d="M11.9987 8.00064C11.9987 10.209 10.2084 11.9993 8 11.9993C5.79159 11.9993 4.00133 10.209 4.00133 8.00064C4.00133 5.79224 5.79159 4.00197 8 4.00197C10.2084 4.00197 11.9987 5.79224 11.9987 8.00064ZM9.99934 8.00064C9.99934 9.10485 9.1042 9.99998 8 9.99998C6.8958 9.99998 6.00066 9.10485 6.00066 8.00064C6.00066 6.89644 6.8958 6.00131 8 6.00131C9.1042 6.00131 9.99934 6.89644 9.99934 8.00064Z" fill="#656C81"/>
<path fill-rule="evenodd" clip-rule="evenodd" d="M8 0.0032959C1.42836 0.0032959 -2.34183 7.47853 1.61365 12.7274L6.54577 19.2722C7.27365 20.2381 8.72635 20.2381 9.45423 19.2723L14.3864 12.7274C18.3418 7.47853 14.5716 0.0032959 8 0.0032959ZM3.21036 11.5241C0.258689 7.60729 3.05973 2.00263 8 2.00263C12.9403 2.00263 15.7413 7.6073 12.7896 11.5241L8 17.8799L3.21036 11.5241Z" fill="#656C81"/>
</svg>
