<svg width="14" height="14" viewBox="0 0 14 14" fill="none" xmlns="http://www.w3.org/2000/svg">
<path d="M5.00016 6.33337C5.00016 5.96518 5.29864 5.66671 5.66683 5.66671C6.03502 5.66671 6.3335 5.96518 6.3335 6.33337V10.3334C6.3335 10.7016 6.03502 11 5.66683 11C5.29864 11 5.00016 10.7016 5.00016 10.3334V6.33337Z" fill="#0858CE"/>
<path d="M8.3335 5.66671C7.9653 5.66671 7.66683 5.96518 7.66683 6.33337V10.3334C7.66683 10.7016 7.9653 11 8.3335 11C8.70169 11 9.00016 10.7016 9.00016 10.3334V6.33337C9.00016 5.96518 8.70169 5.66671 8.3335 5.66671Z" fill="#0858CE"/>
<path fill-rule="evenodd" clip-rule="evenodd" d="M3.66683 3.00004C3.66683 1.52728 4.86074 0.333374 6.3335 0.333374H7.66683C9.13959 0.333374 10.3335 1.52728 10.3335 3.00004H13.0002C13.3684 3.00004 13.6668 3.29851 13.6668 3.66671C13.6668 4.0349 13.3684 4.33337 13.0002 4.33337H12.2452C12.2451 4.38791 12.2416 4.44311 12.2347 4.49875L11.2347 12.4988C11.1513 13.166 10.5841 13.6667 9.91164 13.6667H4.08868C3.41625 13.6667 2.84905 13.166 2.76565 12.4988L1.76565 4.49875C1.75869 4.44311 1.75526 4.38791 1.75516 4.33337H1.00016C0.631968 4.33337 0.333496 4.0349 0.333496 3.66671C0.333496 3.29851 0.631968 3.00004 1.00016 3.00004H3.66683ZM6.3335 1.66671H7.66683C8.40321 1.66671 9.00016 2.26366 9.00016 3.00004H5.00016C5.00016 2.26366 5.59712 1.66671 6.3335 1.66671ZM3.08868 4.33337L4.08868 12.3334H9.91164L10.9116 4.33337H3.08868Z" fill="#0858CE"/>
</svg>
